<svg width="17" height="10" viewBox="0 0 17 10" fill="none" xmlns="http://www.w3.org/2000/svg">
<path d="M4.948 9.132L1.888 1.02L2.116 1.248L0.88 0.84V0.599999H4.528V0.827999L3.232 1.26L3.352 1.032L5.692 7.296H5.644L7.96 1.044L8.068 1.272L6.772 0.84V0.599999H9.676V0.827999L8.38 1.26L8.608 1.032L5.632 9L4.948 9.132ZM9.59069 9V8.772L10.8507 8.328L10.6827 8.568V1.032L10.8507 1.272L9.59069 0.827999V0.599999H13.5987C14.0947 0.599999 14.5347 0.684 14.9187 0.852C15.3027 1.02 15.6027 1.252 15.8187 1.548C16.0347 1.836 16.1427 2.172 16.1427 2.556C16.1427 3.012 16.0107 3.424 15.7467 3.792C15.4907 4.152 15.1387 4.432 14.6907 4.632L14.6667 4.536C15.0747 4.624 15.4227 4.764 15.7107 4.956C15.9987 5.148 16.2227 5.38 16.3827 5.652C16.5427 5.924 16.6227 6.228 16.6227 6.564C16.6227 7.06 16.4787 7.492 16.1907 7.86C15.9027 8.22 15.4987 8.5 14.9787 8.7C14.4667 8.9 13.8547 9 13.1427 9H9.59069ZM12.0387 8.58L11.8587 8.4H13.5267C14.0227 8.4 14.4107 8.26 14.6907 7.98C14.9787 7.7 15.1227 7.332 15.1227 6.876C15.1227 6.276 14.9467 5.8 14.5947 5.448C14.2427 5.096 13.7707 4.92 13.1787 4.92H11.8587L12.0387 4.74V8.58ZM12.0387 4.596L11.8587 4.416H13.5267C13.8547 4.416 14.1227 4.28 14.3307 4.008C14.5387 3.728 14.6427 3.372 14.6427 2.94C14.6427 2.428 14.5067 2.012 14.2347 1.692C13.9627 1.364 13.6147 1.2 13.1907 1.2H11.8587L12.0387 1.02V4.596Z" fill="white"/>
</svg>
