<svg width="360" height="224" viewBox="0 0 360 224" fill="none" xmlns="http://www.w3.org/2000/svg">
<path d="M360 21.168V202.832C360 214.518 350.354 224 338.465 224H21.5348C9.64626 224.01 0 214.528 0 202.842V21.168C0 9.48192 9.64626 0 21.5348 0H338.465C342.717 0 346.694 1.21643 350.036 3.32699C356.044 7.06985 360 13.6615 360 21.168Z" fill="url(#paint0_linear_29_10)"/>
<path d="M36.4801 94.7461V96.5344L33.8993 96.42L35.4012 98.4578L33.7829 99.4039L32.5031 97.1166L31.2233 99.4039L29.6367 98.4578L31.1175 96.42L28.5579 96.5344V94.7461L31.1175 94.8813L29.6367 92.8123L31.2233 91.8662L32.5031 94.1535L33.7829 91.8662L35.4012 92.8123L33.8993 94.8813L36.4801 94.7461Z" fill="white"/>
<path d="M49.7967 94.7461V96.5344L47.2159 96.42L48.7179 98.4578L47.0996 99.4039L45.8197 97.1166L44.5399 99.4039L42.9534 98.4578L44.4342 96.42L41.8745 96.5344V94.7461L44.4342 94.8813L42.9534 92.8123L44.5399 91.8662L45.8197 94.1535L47.0996 91.8662L48.7179 92.8123L47.2159 94.8813L49.7967 94.7461Z" fill="white"/>
<path d="M63.1129 94.7461V96.5344L60.5321 96.42L62.034 98.4578L60.4157 99.4039L59.1359 97.1166L57.8561 99.4039L56.2695 98.4578L57.7503 96.42L55.1907 96.5344V94.7461L57.7503 94.8813L56.2695 92.8123L57.8561 91.8662L59.1359 94.1535L60.4157 91.8662L62.034 92.8123L60.5321 94.8813L63.1129 94.7461Z" fill="white"/>
<path d="M76.4295 94.7461V96.5344L73.8487 96.42L75.3507 98.4578L73.7324 99.4039L72.4526 97.1166L71.1727 99.4039L69.5862 98.4578L71.067 96.42L68.5073 96.5344V94.7461L71.067 94.8813L69.5862 92.8123L71.1727 91.8662L72.4526 94.1535L73.7324 91.8662L75.3507 92.8123L73.8487 94.8813L76.4295 94.7461Z" fill="white"/>
<path d="M98.9801 94.7461V96.5344L96.3993 96.42L97.9012 98.4578L96.2829 99.4039L95.0031 97.1166L93.7233 99.4039L92.1367 98.4578L93.6175 96.42L91.0579 96.5344V94.7461L93.6175 94.8813L92.1367 92.8123L93.7233 91.8662L95.0031 94.1535L96.2829 91.8662L97.9012 92.8123L96.3993 94.8813L98.9801 94.7461Z" fill="white"/>
<path d="M112.296 94.7461V96.5344L109.715 96.42L111.217 98.4578L109.599 99.4039L108.319 97.1166L107.039 99.4039L105.453 98.4578L106.934 96.42L104.374 96.5344V94.7461L106.934 94.8813L105.453 92.8123L107.039 91.8662L108.319 94.1535L109.599 91.8662L111.217 92.8123L109.715 94.8813L112.296 94.7461Z" fill="white"/>
<path d="M125.623 94.7461V96.5344L123.042 96.42L124.544 98.4578L122.926 99.4039L121.646 97.1166L120.366 99.4039L118.78 98.4578L120.261 96.42L117.701 96.5344V94.7461L120.261 94.8813L118.78 92.8123L120.366 91.8662L121.646 94.1535L122.926 91.8662L124.544 92.8123L123.042 94.8813L125.623 94.7461Z" fill="white"/>
<path d="M138.94 94.7461V96.5344L136.359 96.42L137.861 98.4578L136.243 99.4039L134.963 97.1166L133.683 99.4039L132.096 98.4578L133.577 96.42L131.018 96.5344V94.7461L133.577 94.8813L132.096 92.8123L133.683 91.8662L134.963 94.1535L136.243 91.8662L137.861 92.8123L136.359 94.8813L138.94 94.7461Z" fill="white"/>
<path d="M161.49 94.7461V96.5344L158.909 96.42L160.411 98.4578L158.793 99.4039L157.513 97.1166L156.233 99.4039L154.647 98.4578L156.128 96.42L153.568 96.5344V94.7461L156.128 94.8813L154.647 92.8123L156.233 91.8662L157.513 94.1535L158.793 91.8662L160.411 92.8123L158.909 94.8813L161.49 94.7461Z" fill="white"/>
<path d="M174.807 94.7461V96.5344L172.226 96.42L173.728 98.4578L172.11 99.4039L170.83 97.1166L169.55 99.4039L167.963 98.4578L169.444 96.42L166.885 96.5344V94.7461L169.444 94.8813L167.963 92.8123L169.55 91.8662L170.83 94.1535L172.11 91.8662L173.728 92.8123L172.226 94.8813L174.807 94.7461Z" fill="white"/>
<path d="M188.123 94.7461V96.5344L185.542 96.42L187.044 98.4578L185.426 99.4039L184.146 97.1166L182.866 99.4039L181.28 98.4578L182.76 96.42L180.201 96.5344V94.7461L182.76 94.8813L181.28 92.8123L182.866 91.8662L184.146 94.1535L185.426 91.8662L187.044 92.8123L185.542 94.8813L188.123 94.7461Z" fill="white"/>
<path d="M201.44 94.7461V96.5344L198.859 96.42L200.361 98.4578L198.742 99.4039L197.463 97.1166L196.183 99.4039L194.596 98.4578L196.077 96.42L193.517 96.5344V94.7461L196.077 94.8813L194.596 92.8123L196.183 91.8662L197.463 94.1535L198.742 91.8662L200.361 92.8123L198.859 94.8813L201.44 94.7461Z" fill="white"/>
<path d="M215.443 111.776V109.655L222.456 102.617C224.328 100.776 225.269 99.196 225.269 97.8756C225.269 96.7735 224.931 95.921 224.243 95.3076C223.567 94.6942 222.731 94.3823 221.747 94.3823C219.875 94.3823 218.511 95.2556 217.654 97.0023L215.443 95.7234C216.067 94.455 216.935 93.4985 218.045 92.8435C219.156 92.1885 220.383 91.8662 221.726 91.8662C223.387 91.8662 224.836 92.4069 226.073 93.4881C227.3 94.5694 227.924 96.0146 227.924 97.8444C227.924 99.8198 226.74 101.972 224.381 104.301L219.315 109.271H228.305V111.787H215.443V111.776Z" fill="white"/>
<path d="M240.194 100.236C241.706 100.517 242.954 101.161 243.917 102.17C244.879 103.178 245.366 104.447 245.366 105.996C245.366 107.898 244.699 109.395 243.377 110.487C242.055 111.589 240.447 112.13 238.554 112.13C237.042 112.13 235.698 111.787 234.524 111.111C233.35 110.435 232.515 109.447 232.028 108.169L234.239 106.89C234.82 108.699 236.269 109.593 238.554 109.593C239.781 109.593 240.786 109.281 241.569 108.647C242.341 108.013 242.732 107.129 242.732 105.996C242.732 104.862 242.341 103.968 241.569 103.334C240.796 102.689 239.792 102.367 238.554 102.367H237.877L236.83 100.776L241.431 94.6631H232.599V92.2302H244.53L244.52 94.5071L240.194 100.236Z" fill="white"/>
<path d="M264.997 105.632V108.054H262.585V111.766H259.941V108.054H249.808V105.632L256.937 92.2302H259.772L252.643 105.632H259.941V100.101H262.585V105.632H264.997Z" fill="white"/>
<path d="M275.384 99.8511C277.256 99.8511 278.842 100.392 280.143 101.483C281.444 102.575 282.09 104.072 282.09 105.996C282.09 107.898 281.423 109.395 280.101 110.487C278.779 111.589 277.171 112.13 275.278 112.13C273.765 112.13 272.412 111.776 271.216 111.059C270.021 110.342 269.186 109.302 268.72 107.95L270.963 106.692C271.227 107.638 271.735 108.366 272.496 108.855C273.258 109.343 274.178 109.593 275.278 109.593C276.526 109.593 277.541 109.281 278.314 108.647C279.086 108.013 279.477 107.129 279.477 105.996C279.477 104.862 279.086 103.968 278.314 103.334C277.541 102.689 276.547 102.367 275.331 102.367H269.714L270.423 92.2302H281.328V94.6631H272.835L272.486 99.8511H275.384V99.8511Z" fill="white"/>
<path d="M30.2294 165.143C29.0659 165.143 28.114 164.769 27.3524 164.01C26.6015 163.261 26.2207 162.326 26.2207 161.234C26.2207 160.142 26.6015 159.207 27.3524 158.458C28.1034 157.709 29.0659 157.325 30.2294 157.325C30.9275 157.325 31.5727 157.491 32.165 157.824C32.7573 158.156 33.2121 158.604 33.54 159.155L32.6515 159.664C32.4294 159.248 32.1015 158.915 31.6679 158.666C31.2342 158.416 30.7477 158.292 30.2294 158.292C29.3409 158.292 28.6217 158.572 28.0611 159.134C27.5005 159.695 27.2255 160.392 27.2255 161.234C27.2255 162.066 27.5005 162.762 28.0611 163.324C28.6217 163.885 29.3409 164.166 30.2294 164.166C30.7583 164.166 31.2342 164.041 31.6679 163.792C32.1015 163.542 32.4294 163.22 32.6515 162.804L33.54 163.303C33.2227 163.864 32.7573 164.311 32.1756 164.644C31.5833 164.977 30.9381 165.143 30.2294 165.143Z" fill="white"/>
<path d="M39.1031 159.623H40.055V165.008H39.1031V164.083C38.6271 164.79 37.9396 165.154 37.03 165.154C36.2684 165.154 35.6127 164.883 35.0732 164.332C34.5338 163.781 34.2588 163.116 34.2588 162.326C34.2588 161.536 34.5338 160.87 35.0732 160.319C35.6127 159.768 36.2684 159.498 37.03 159.498C37.9396 159.498 38.6271 159.851 39.1031 160.569V159.623ZM37.1569 164.239C37.7069 164.239 38.1723 164.052 38.5531 163.688C38.9338 163.324 39.1136 162.856 39.1136 162.315C39.1136 161.775 38.9233 161.317 38.5531 160.943C38.1829 160.569 37.7175 160.392 37.1569 160.392C36.6069 160.392 36.1521 160.579 35.7819 160.943C35.4117 161.317 35.2213 161.775 35.2213 162.315C35.2213 162.866 35.4117 163.324 35.7819 163.688C36.1521 164.062 36.6069 164.239 37.1569 164.239Z" fill="white"/>
<path d="M42.4563 160.527C42.7736 159.862 43.3342 159.529 44.1698 159.529V160.507C43.7044 160.486 43.3025 160.611 42.964 160.87C42.6256 161.141 42.4563 161.567 42.4563 162.149V165.008H41.5044V159.623H42.4563V160.527Z" fill="white"/>
<path d="M49.3418 157.471H50.2938V165.008H49.3418V164.083C48.8659 164.79 48.1784 165.154 47.2687 165.154C46.5072 165.154 45.8514 164.884 45.312 164.333C44.7726 163.782 44.4976 163.116 44.4976 162.326C44.4976 161.536 44.7726 160.87 45.312 160.319C45.8514 159.768 46.5072 159.498 47.2687 159.498C48.1784 159.498 48.8659 159.852 49.3418 160.569V157.471ZM47.3851 164.239C47.9351 164.239 48.4005 164.052 48.7813 163.688C49.162 163.324 49.3418 162.856 49.3418 162.316C49.3418 161.775 49.1515 161.318 48.7813 160.943C48.4111 160.569 47.9457 160.392 47.3851 160.392C46.8351 160.392 46.3803 160.579 46.0101 160.943C45.6399 161.318 45.4495 161.775 45.4495 162.316C45.4495 162.867 45.6399 163.324 46.0101 163.688C46.3803 164.062 46.8457 164.239 47.3851 164.239Z" fill="white"/>
<path d="M59.3157 157.471H60.3205V165.008H59.3157V161.619H55.5925V165.008H54.5771V157.471H55.5925V160.673H59.3157V157.471V157.471Z" fill="white"/>
<path d="M66.4977 164.333C65.9372 164.873 65.2497 165.154 64.4458 165.154C63.6419 165.154 62.965 164.884 62.4044 164.333C61.8439 163.782 61.5688 163.116 61.5688 162.316C61.5688 161.515 61.8439 160.85 62.4044 160.299C62.965 159.758 63.6419 159.477 64.4458 159.477C65.2497 159.477 65.9372 159.748 66.4977 160.299C67.0583 160.85 67.3439 161.515 67.3439 162.316C67.3333 163.116 67.0583 163.782 66.4977 164.333ZM64.4458 164.229C64.9958 164.229 65.4506 164.042 65.8314 163.678C66.2016 163.314 66.392 162.856 66.392 162.305C66.392 161.765 66.2016 161.307 65.8314 160.933C65.4612 160.569 64.9958 160.382 64.4458 160.382C63.9064 160.382 63.4516 160.569 63.0814 160.933C62.7112 161.297 62.5208 161.754 62.5208 162.305C62.5208 162.856 62.7112 163.303 63.0814 163.678C63.4516 164.052 63.9064 164.229 64.4458 164.229Z" fill="white"/>
<path d="M68.4651 165.008V157.148H69.417V165.008H68.4651Z" fill="white"/>
<path d="M75.4141 157.471H76.366V165.008H75.4141V164.083C74.9381 164.79 74.2506 165.154 73.341 165.154C72.5795 165.154 71.9237 164.884 71.3843 164.333C70.8448 163.782 70.5698 163.116 70.5698 162.326C70.5698 161.536 70.8448 160.87 71.3843 160.319C71.9237 159.768 72.5795 159.498 73.341 159.498C74.2506 159.498 74.9381 159.852 75.4141 160.569V157.471ZM73.4574 164.239C74.0074 164.239 74.4727 164.052 74.8535 163.688C75.2343 163.324 75.4141 162.856 75.4141 162.316C75.4141 161.775 75.2237 161.318 74.8535 160.943C74.4833 160.569 74.0179 160.392 73.4574 160.392C72.9073 160.392 72.4525 160.579 72.0823 160.943C71.7121 161.318 71.5218 161.775 71.5218 162.316C71.5218 162.867 71.7121 163.324 72.0823 163.688C72.4525 164.062 72.9179 164.239 73.4574 164.239Z" fill="white"/>
<path d="M78.4815 162.742C78.5767 163.22 78.7989 163.594 79.1585 163.865C79.5075 164.125 79.9518 164.26 80.47 164.26C81.1893 164.26 81.7181 164 82.046 163.47L82.8604 163.917C82.3316 164.728 81.5277 165.133 80.4489 165.133C79.5816 165.133 78.8729 164.863 78.3335 164.333C77.794 163.802 77.519 163.116 77.519 162.305C77.519 161.494 77.7835 160.818 78.3229 160.278C78.8518 159.737 79.5498 159.467 80.396 159.467C81.1999 159.467 81.8556 159.748 82.3633 160.299C82.871 160.86 83.1249 161.525 83.1249 162.305C83.1249 162.44 83.1143 162.586 83.0931 162.721H78.4815V162.742ZM80.3748 160.361C79.8671 160.361 79.4441 160.506 79.1056 160.787C78.7671 161.068 78.5662 161.453 78.4815 161.92H82.1412C82.0566 161.411 81.8556 161.026 81.5277 160.756C81.1999 160.496 80.8085 160.361 80.3748 160.361Z" fill="white"/>
<path d="M85.1558 160.527C85.4731 159.862 86.0337 159.529 86.8693 159.529V160.507C86.4039 160.486 86.002 160.611 85.6635 160.87C85.325 161.141 85.1558 161.567 85.1558 162.149V165.008H84.2039V159.623H85.1558V160.527Z" fill="white"/>
<path d="M93.2578 159.488C93.903 159.488 94.4107 159.685 94.8021 160.091C95.1934 160.486 95.3838 161.027 95.3838 161.713V165.019H94.4319V161.765C94.4319 161.328 94.3156 160.985 94.0723 160.746C93.829 160.507 93.5011 160.382 93.078 160.382C92.6021 160.382 92.2213 160.527 91.9251 160.819C91.629 161.11 91.4915 161.557 91.4915 162.16V165.019H90.5396V159.633H91.4915V160.413C91.8723 159.789 92.4646 159.488 93.2578 159.488Z" fill="white"/>
<path d="M101.243 159.623H102.195V165.008H101.243V164.083C100.767 164.79 100.08 165.154 99.1701 165.154C98.4086 165.154 97.7528 164.883 97.2134 164.332C96.6739 163.781 96.3989 163.116 96.3989 162.326C96.3989 161.536 96.6739 160.87 97.2134 160.319C97.7528 159.768 98.4086 159.498 99.1701 159.498C100.08 159.498 100.767 159.851 101.243 160.569V159.623ZM99.297 164.239C99.847 164.239 100.312 164.052 100.693 163.688C101.074 163.324 101.254 162.856 101.254 162.315C101.254 161.775 101.063 161.317 100.693 160.943C100.323 160.569 99.8576 160.392 99.297 160.392C98.747 160.392 98.2922 160.579 97.922 160.943C97.5518 161.317 97.3614 161.775 97.3614 162.315C97.3614 162.866 97.5518 163.324 97.922 163.688C98.2816 164.062 98.747 164.239 99.297 164.239Z" fill="white"/>
<path d="M109.557 159.488C110.17 159.488 110.668 159.685 111.048 160.07C111.429 160.465 111.619 160.995 111.619 161.661V165.009H110.668V161.692C110.668 161.276 110.562 160.954 110.34 160.725C110.118 160.496 109.832 160.382 109.462 160.382C109.049 160.382 108.721 160.517 108.478 160.787C108.235 161.058 108.108 161.463 108.108 162.025V165.019H107.156V161.702C107.156 161.286 107.05 160.964 106.839 160.735C106.627 160.507 106.352 160.392 105.992 160.392C105.591 160.392 105.252 160.527 104.988 160.798C104.723 161.068 104.586 161.484 104.586 162.025V165.019H103.634V159.633H104.586V160.351C104.956 159.779 105.506 159.488 106.215 159.488C106.955 159.488 107.494 159.789 107.822 160.403C108.224 159.789 108.795 159.488 109.557 159.488Z" fill="white"/>
<path d="M113.608 162.742C113.703 163.22 113.925 163.594 114.285 163.865C114.634 164.125 115.078 164.26 115.596 164.26C116.315 164.26 116.844 164 117.172 163.47L117.987 163.917C117.458 164.728 116.654 165.133 115.575 165.133C114.708 165.133 113.999 164.863 113.46 164.333C112.92 163.802 112.645 163.116 112.645 162.305C112.645 161.494 112.91 160.818 113.449 160.278C113.978 159.737 114.676 159.467 115.522 159.467C116.326 159.467 116.982 159.748 117.49 160.299C117.997 160.86 118.251 161.525 118.251 162.305C118.251 162.44 118.241 162.586 118.219 162.721H113.608V162.742ZM115.512 160.361C115.004 160.361 114.581 160.506 114.242 160.787C113.904 161.068 113.703 161.453 113.618 161.92H117.278C117.193 161.411 116.992 161.026 116.665 160.756C116.326 160.496 115.945 160.361 115.512 160.361Z" fill="white"/>
<path d="M263.04 164.062H266.605V165.008H262.025V157.471H266.552V158.417H263.051V160.735H266.287V161.671H263.051V164.062H263.04Z" fill="white"/>
<path d="M272.486 165.008H271.364L269.82 162.971L268.276 165.008H267.155L269.249 162.232L267.271 159.623H268.403L269.81 161.494L271.227 159.623H272.348L270.37 162.232L272.486 165.008Z" fill="white"/>
<path d="M276.399 159.488C277.171 159.488 277.816 159.758 278.356 160.309C278.895 160.86 279.17 161.526 279.17 162.316C279.17 163.106 278.895 163.771 278.356 164.322C277.816 164.873 277.161 165.144 276.399 165.144C275.489 165.144 274.802 164.79 274.326 164.073V167.15H273.374V159.613H274.326V160.538C274.802 159.841 275.489 159.488 276.399 159.488ZM276.283 164.239C276.833 164.239 277.288 164.052 277.658 163.688C278.028 163.324 278.218 162.856 278.218 162.316C278.218 161.775 278.028 161.318 277.658 160.943C277.288 160.569 276.822 160.392 276.283 160.392C275.722 160.392 275.267 160.579 274.887 160.943C274.516 161.318 274.326 161.775 274.326 162.316C274.326 162.867 274.516 163.324 274.887 163.688C275.257 164.062 275.722 164.239 276.283 164.239Z" fill="white"/>
<path d="M280.789 158.646C280.609 158.646 280.45 158.583 280.323 158.459C280.196 158.334 280.133 158.188 280.133 158.022C280.133 157.845 280.196 157.7 280.323 157.575C280.45 157.45 280.598 157.388 280.789 157.388C280.968 157.388 281.116 157.45 281.233 157.575C281.36 157.7 281.423 157.845 281.423 158.022C281.423 158.199 281.36 158.344 281.233 158.459C281.116 158.583 280.968 158.646 280.789 158.646ZM280.313 165.009V159.623H281.265V165.009H280.313Z" fill="white"/>
<path d="M283.676 160.527C283.993 159.862 284.554 159.529 285.39 159.529V160.507C284.924 160.486 284.522 160.611 284.184 160.87C283.845 161.141 283.676 161.567 283.676 162.149V165.008H282.724V159.623H283.676V160.527Z" fill="white"/>
<path d="M290.255 159.623H291.271L289.039 165.341C288.806 165.954 288.478 166.412 288.055 166.734C287.632 167.057 287.156 167.192 286.606 167.161V166.287C287.273 166.339 287.77 165.975 288.076 165.185L288.182 164.988L285.792 159.623H286.807L288.637 163.75L290.255 159.623Z" fill="white"/>
<path d="M297.902 157.471C298.949 157.471 299.817 157.835 300.504 158.563C301.192 159.29 301.541 160.184 301.541 161.235C301.541 162.285 301.192 163.179 300.504 163.906C299.817 164.634 298.949 164.998 297.902 164.998H294.909V157.46H297.902V157.471ZM297.902 164.062C298.685 164.062 299.32 163.792 299.817 163.251C300.314 162.711 300.557 162.045 300.557 161.235C300.557 160.424 300.314 159.758 299.817 159.218C299.32 158.677 298.685 158.407 297.902 158.407H295.935V164.052H297.902V164.062Z" fill="white"/>
<path d="M307.221 159.623H308.173V165.008H307.221V164.083C306.745 164.79 306.057 165.154 305.148 165.154C304.386 165.154 303.73 164.883 303.191 164.332C302.651 163.781 302.376 163.116 302.376 162.326C302.376 161.536 302.651 160.87 303.191 160.319C303.73 159.768 304.386 159.498 305.148 159.498C306.057 159.498 306.745 159.851 307.221 160.569V159.623ZM305.264 164.239C305.814 164.239 306.279 164.052 306.66 163.688C307.041 163.324 307.221 162.856 307.221 162.315C307.221 161.775 307.03 161.317 306.66 160.943C306.29 160.569 305.825 160.392 305.264 160.392C304.714 160.392 304.259 160.579 303.889 160.943C303.519 161.317 303.328 161.775 303.328 162.315C303.328 162.866 303.519 163.324 303.889 163.688C304.259 164.062 304.714 164.239 305.264 164.239Z" fill="white"/>
<path d="M312.594 160.527H311.134V163.449C311.134 163.719 311.187 163.906 311.293 164.01C311.398 164.125 311.557 164.177 311.779 164.187C312.001 164.187 312.266 164.187 312.594 164.166V165.008C311.758 165.112 311.155 165.05 310.764 164.811C310.372 164.572 310.182 164.114 310.182 163.449V160.527H309.093V159.623H310.182V158.396L311.134 158.115V159.623H312.594V160.527V160.527Z" fill="white"/>
<path d="M314.117 162.742C314.212 163.22 314.434 163.594 314.794 163.865C315.143 164.125 315.587 164.26 316.105 164.26C316.825 164.26 317.353 164 317.681 163.47L318.496 163.917C317.967 164.728 317.163 165.133 316.084 165.133C315.217 165.133 314.508 164.863 313.969 164.333C313.429 163.802 313.154 163.116 313.154 162.305C313.154 161.494 313.419 160.818 313.958 160.278C314.487 159.737 315.185 159.467 316.031 159.467C316.835 159.467 317.491 159.748 317.999 160.299C318.506 160.86 318.76 161.525 318.76 162.305C318.76 162.44 318.75 162.586 318.728 162.721H314.117V162.742ZM316.01 160.361C315.502 160.361 315.079 160.506 314.741 160.787C314.402 161.068 314.201 161.453 314.117 161.92H317.776C317.692 161.411 317.491 161.026 317.163 160.756C316.835 160.496 316.454 160.361 316.01 160.361Z" fill="white"/>
<path d="M269.82 185.958C269.027 187.049 267.916 187.59 266.488 187.59C265.06 187.59 263.95 187.049 263.157 185.958C262.363 184.866 261.961 183.421 261.961 181.612C261.961 179.803 262.363 178.347 263.157 177.266C263.95 176.185 265.06 175.634 266.488 175.634C267.916 175.634 269.027 176.174 269.82 177.266C270.613 178.358 271.005 179.803 271.005 181.612C271.005 183.421 270.613 184.866 269.82 185.958ZM264.288 184.918C264.807 185.698 265.536 186.093 266.488 186.093C267.44 186.093 268.17 185.698 268.688 184.918C269.207 184.138 269.471 183.036 269.471 181.612C269.471 180.187 269.207 179.075 268.688 178.295C268.17 177.515 267.43 177.12 266.488 177.12C265.536 177.12 264.807 177.515 264.288 178.295C263.77 179.075 263.516 180.187 263.516 181.622C263.516 183.036 263.77 184.138 264.288 184.918Z" fill="white"/>
<path d="M272.147 187.372V186.124L276.283 181.976C277.393 180.884 277.943 179.959 277.943 179.179C277.943 178.535 277.742 178.025 277.34 177.661C276.938 177.297 276.441 177.121 275.87 177.121C274.76 177.121 273.956 177.64 273.459 178.67L272.147 177.911C272.517 177.162 273.025 176.601 273.681 176.216C274.336 175.831 275.056 175.644 275.849 175.644C276.833 175.644 277.689 175.967 278.409 176.601C279.138 177.235 279.498 178.098 279.498 179.169C279.498 180.333 278.8 181.602 277.404 182.974L274.41 185.906H279.71V187.393H272.147V187.372Z" fill="white"/>
<path d="M281.889 188.994L281.021 189.015L287.727 174.21L288.594 174.189L281.889 188.994Z" fill="white"/>
<path d="M294.517 180.562C295.416 180.728 296.146 181.103 296.717 181.695C297.289 182.288 297.574 183.037 297.574 183.951C297.574 185.074 297.183 185.958 296.4 186.603C295.617 187.247 294.665 187.57 293.555 187.57C292.656 187.57 291.863 187.372 291.175 186.967C290.477 186.561 289.99 185.989 289.705 185.23L291.016 184.471C291.365 185.532 292.212 186.072 293.565 186.072C294.295 186.072 294.888 185.885 295.342 185.511C295.797 185.137 296.03 184.617 296.03 183.951C296.03 183.286 295.797 182.756 295.342 182.382C294.888 182.007 294.295 181.81 293.565 181.81H293.164L292.539 180.874L295.258 177.266H290.043V175.832H297.077L297.066 177.173L294.517 180.562Z" fill="white"/>
<path d="M306.808 185.958C306.015 187.049 304.904 187.59 303.476 187.59C302.048 187.59 300.938 187.049 300.144 185.958C299.351 184.866 298.949 183.421 298.949 181.612C298.949 179.803 299.351 178.347 300.144 177.266C300.938 176.185 302.048 175.634 303.476 175.634C304.904 175.634 306.015 176.174 306.808 177.266C307.601 178.358 308.003 179.803 308.003 181.612C307.993 183.421 307.601 184.866 306.808 185.958ZM301.276 184.918C301.794 185.698 302.524 186.093 303.476 186.093C304.428 186.093 305.158 185.698 305.676 184.918C306.194 184.138 306.459 183.036 306.459 181.612C306.459 180.187 306.194 179.075 305.676 178.295C305.158 177.515 304.418 177.12 303.476 177.12C302.524 177.12 301.794 177.515 301.276 178.295C300.758 179.075 300.504 180.187 300.504 181.622C300.504 183.036 300.758 184.138 301.276 184.918Z" fill="white"/>
<path d="M330.458 34.4653H326.894C325.783 34.4653 324.948 34.7668 324.472 35.8377L317.618 51.1107H322.462C322.462 51.1107 323.266 49.0625 323.446 48.6154H329.348C329.496 49.1977 329.908 51.1107 329.908 51.1107H334.192L330.458 34.4653ZM324.778 45.2157C325.149 44.2488 326.587 40.5475 326.587 40.5475C326.587 40.5475 326.989 39.5702 327.211 38.9672L327.518 40.4019C327.518 40.4019 328.417 44.3631 328.597 45.2157H324.778Z" fill="white"/>
<path d="M311.472 39.0819C311.462 39.8616 312.456 40.3815 314.074 41.1508C316.729 42.3361 317.967 43.7812 317.946 45.6735C317.914 49.1252 314.762 51.3605 309.907 51.3605C307.845 51.3397 305.845 50.9239 304.767 50.4768L305.422 46.7443L306.015 47.0147C307.527 47.6281 308.511 47.888 310.362 47.888C311.684 47.888 313.101 47.3786 313.112 46.2661C313.122 45.5279 312.52 45.0081 310.721 44.1867C308.966 43.3966 306.649 42.0658 306.67 39.6745C306.692 36.4411 309.907 34.1746 314.466 34.1746C316.253 34.1746 317.692 34.5385 318.612 34.8712L317.988 38.4789L317.575 38.2917C316.719 37.9486 315.629 37.6263 314.117 37.6471C312.319 37.6471 311.472 38.3957 311.472 39.0819Z" fill="white"/>
<path d="M304.767 34.4551L301.869 51.1004H297.268L300.155 34.4551H304.767Z" fill="white"/>
<path d="M288.192 43.022C286.659 39.1752 282.978 35.973 277.404 34.6422L277.467 34.2991H284.628C285.601 34.3303 286.373 34.6422 286.648 35.6507L288.192 43.022Z" fill="white"/>
<path d="M298.283 34.4653L291.006 51.0795H286.13L281.994 37.2101C284.966 39.0815 287.494 42.0446 288.383 44.1032L288.869 45.8187L293.396 34.4653H298.283Z" fill="white"/>
<path d="M60.3102 58.8982H31.456C29.6262 58.8982 28.1243 57.4219 28.1243 55.6232V34.6112C28.1243 32.8125 29.6262 31.3362 31.456 31.3362H60.3102C62.14 31.3362 63.642 32.8125 63.642 34.6112V55.6232C63.6525 57.4323 62.1506 58.8982 60.3102 58.8982Z" fill="#F6C859"/>
<path d="M41.8004 55.2282C41.6523 55.2282 41.5043 55.145 41.4302 55.0099C41.3244 54.8123 41.4091 54.5628 41.61 54.4692C42.2023 54.1677 43.0168 53.6063 43.4822 52.629C44.0745 51.3917 43.9264 50.0506 43.6725 49.9362C43.6091 49.905 43.3552 50.0298 43.2072 50.1129C42.8158 50.3105 42.287 50.5808 41.6629 50.3625C41.0494 50.1545 40.7533 49.6243 40.6158 49.3644C39.685 47.6905 39.3994 43.3238 40.3831 41.1509C40.711 40.4335 41.1552 40.0072 41.7052 39.8824C42.2658 39.7577 42.7206 39.9864 43.0908 40.1736C43.3975 40.3295 43.5456 40.3919 43.6408 40.3399C44.0216 40.1112 44.011 38.7284 43.4822 37.6263C43.0168 36.649 42.2023 36.0876 41.61 35.7861C41.4091 35.6821 41.3244 35.443 41.4302 35.2454C41.536 35.0479 41.7793 34.9647 41.9802 35.0687C42.6889 35.4222 43.6514 36.098 44.2226 37.2728C44.7831 38.4373 45.0476 40.4439 44.0639 41.0261C43.5668 41.3172 43.0908 41.0781 42.71 40.8909C42.4245 40.7454 42.1495 40.6102 41.885 40.6726C41.5254 40.7558 41.2716 41.1613 41.1235 41.494C40.2667 43.3862 40.51 47.5137 41.3244 48.9901C41.4619 49.2396 41.6312 49.5099 41.9168 49.6139C42.1918 49.7075 42.4562 49.5931 42.8264 49.406C43.186 49.2292 43.5879 49.0213 44.0216 49.2292C44.9418 49.6659 44.8783 51.6205 44.212 53.0033C43.6408 54.1781 42.6783 54.8539 41.9696 55.2074C41.9273 55.2074 41.8639 55.2282 41.8004 55.2282Z" fill="#7D662D"/>
<path d="M40.5628 41.8786H33.1588C32.9367 41.8786 32.7463 41.7018 32.7463 41.4731C32.7463 41.2444 32.9261 41.0676 33.1588 41.0676H40.5628C40.7849 41.0676 40.9753 41.2444 40.9753 41.4731C40.9753 41.7018 40.7955 41.8786 40.5628 41.8786Z" fill="#7D662D"/>
<path d="M40.5628 49.1564H33.1588C32.9367 49.1564 32.7463 48.9797 32.7463 48.7509C32.7463 48.5326 32.9261 48.3455 33.1588 48.3455H40.5628C40.7849 48.3455 40.9753 48.5222 40.9753 48.7509C40.9753 48.9797 40.7955 49.1564 40.5628 49.1564Z" fill="#7D662D"/>
<path d="M50.4417 55.2282C50.3783 55.2282 50.3148 55.2178 50.2514 55.1867C49.5427 54.8332 48.5802 54.1574 48.009 52.9825C47.3427 51.5998 47.2792 49.6555 48.1994 49.2085C48.6331 49.0005 49.035 49.2085 49.3946 49.3852C49.7648 49.5724 50.0292 49.6867 50.3042 49.5932C50.611 49.4892 50.7908 49.1669 50.8966 48.9693C51.7216 47.493 51.9648 43.3758 51.0975 41.4732C50.9494 41.1509 50.6956 40.735 50.336 40.6519C50.1139 40.5999 49.9763 40.3816 50.0292 40.1632C50.0821 39.9449 50.3042 39.8097 50.5264 39.8617C51.0764 39.9865 51.5206 40.4127 51.8485 41.1405C52.8322 43.3031 52.5466 47.6697 51.6158 49.354C51.4783 49.6139 51.1716 50.1442 50.5687 50.3521C49.9446 50.5601 49.4158 50.3001 49.0244 50.1026C48.8763 50.0298 48.6225 49.9051 48.559 49.9259C48.3158 50.0402 48.1571 51.3814 48.7494 52.6186C49.2148 53.5959 50.0292 54.1574 50.6216 54.4589C50.8225 54.5629 50.9071 54.802 50.8014 54.9995C50.7273 55.1451 50.5898 55.2282 50.4417 55.2282Z" fill="#7D662D"/>
<path d="M48.7917 40.2669C48.6225 40.2669 48.4638 40.163 48.4004 39.9862C47.5225 37.387 49.585 35.3804 50.2514 35.0477C50.4523 34.9437 50.7062 35.0269 50.8014 35.2245C50.9071 35.422 50.8225 35.6715 50.6216 35.7651C50.3254 35.9106 48.4321 37.5118 49.1831 39.7263C49.2571 39.9342 49.1408 40.163 48.9187 40.2357C48.8763 40.2565 48.834 40.2669 48.7917 40.2669Z" fill="#7D662D"/>
<path d="M59.0728 41.8786H51.6689C51.4467 41.8786 51.2563 41.7018 51.2563 41.4731C51.2563 41.2444 51.4362 41.0676 51.6689 41.0676H59.0728C59.2949 41.0676 59.4853 41.2444 59.4853 41.4731C59.4853 41.7018 59.3055 41.8786 59.0728 41.8786Z" fill="#7D662D"/>
<path d="M59.0728 49.1564H51.6689C51.4467 49.1564 51.2563 48.9797 51.2563 48.7509C51.2563 48.5326 51.4362 48.3455 51.6689 48.3455H59.0728C59.2949 48.3455 59.4853 48.5222 59.4853 48.7509C59.4853 48.9797 59.3055 49.1564 59.0728 49.1564Z" fill="#7D662D"/>
<defs>
<linearGradient id="paint0_linear_29_10" x1="114.722" y1="276.882" x2="199.717" y2="54.7079" gradientUnits="userSpaceOnUse">
<stop stop-color="#93278F"/>
<stop offset="1" stop-color="#29ABE2"/>
</linearGradient>
</defs>
</svg>
