<svg width="30" height="30" viewBox="0 0 30 30" fill="none" xmlns="http://www.w3.org/2000/svg">
<g opacity="0.3" clip-path="url(#clip0_51_20)">
<path fill-rule="evenodd" clip-rule="evenodd" d="M20.625 28.125C22.6141 28.125 24.5218 27.3348 25.9283 25.9283C27.3348 24.5218 28.125 22.6141 28.125 20.625C28.125 18.6359 27.3348 16.7282 25.9283 15.3217C24.5218 13.9152 22.6141 13.125 20.625 13.125C18.6359 13.125 16.7282 13.9152 15.3217 15.3217C13.9152 16.7282 13.125 18.6359 13.125 20.625C13.125 22.6141 13.9152 24.5218 15.3217 25.9283C16.7282 27.3348 18.6359 28.125 20.625 28.125ZM30 20.625C30 23.1114 29.0123 25.496 27.2541 27.2541C25.496 29.0123 23.1114 30 20.625 30C18.1386 30 15.754 29.0123 13.9959 27.2541C12.2377 25.496 11.25 23.1114 11.25 20.625C11.25 18.1386 12.2377 15.754 13.9959 13.9959C15.754 12.2377 18.1386 11.25 20.625 11.25C23.1114 11.25 25.496 12.2377 27.2541 13.9959C29.0123 15.754 30 18.1386 30 20.625Z" fill="#0200EF"/>
<path d="M17.6962 22.395C17.7843 23.5125 18.6675 24.3825 20.2518 24.4875V25.3125H20.955V24.4819C22.5956 24.3675 23.5537 23.49 23.5537 22.2188C23.5537 21.06 22.8225 20.4637 21.51 20.1562L20.955 20.025V17.775C21.66 17.8556 22.1062 18.24 22.2131 18.7725H23.4468C23.3587 17.6944 22.4343 16.8525 20.955 16.7606V15.9375H20.2518V16.7812C18.8512 16.9181 17.8987 17.76 17.8987 18.9525C17.8987 20.0062 18.6075 20.6775 19.7868 20.9512L20.2518 21.0656V23.4506C19.5318 23.3419 19.0537 22.9444 18.9468 22.395H17.6962ZM20.2462 19.8563C19.5543 19.6969 19.1793 19.3687 19.1793 18.8775C19.1793 18.3262 19.5843 17.9137 20.2518 17.7937V19.8563H20.2462ZM21.0562 21.255C21.8981 21.45 22.2843 21.765 22.2843 22.3219C22.2843 22.9575 21.8025 23.3925 20.955 23.4731V21.2325L21.0562 21.255Z" fill="#0200EF"/>
<path d="M1.875 0C1.37772 0 0.900806 0.197544 0.549175 0.549175C0.197544 0.900806 0 1.37772 0 1.875L0 16.875C0 17.3723 0.197544 17.8492 0.549175 18.2008C0.900806 18.5525 1.37772 18.75 1.875 18.75H9.53063C9.64062 18.1038 9.80188 17.4788 10.0144 16.875H5.625C5.625 15.8804 5.22991 14.9266 4.52665 14.2233C3.82339 13.5201 2.86956 13.125 1.875 13.125V5.625C2.86956 5.625 3.82339 5.22991 4.52665 4.52665C5.22991 3.82339 5.625 2.86956 5.625 1.875H24.375C24.375 2.86956 24.7701 3.82339 25.4734 4.52665C26.1766 5.22991 27.1304 5.625 28.125 5.625V12.24C28.8375 12.8775 29.4694 13.605 30 14.4038V1.875C30 1.37772 29.8025 0.900806 29.4508 0.549175C29.0992 0.197544 28.6223 0 28.125 0L1.875 0Z" fill="#0200EF"/>
<path d="M18.7463 9.53059L18.75 9.37497C18.7496 8.7292 18.5825 8.09448 18.2648 7.53227C17.9471 6.97006 17.4896 6.49942 16.9366 6.16594C16.3836 5.83245 15.7538 5.64742 15.1083 5.62876C14.4628 5.61011 13.8235 5.75846 13.2521 6.05944C12.6808 6.36043 12.1969 6.80386 11.8472 7.34678C11.4976 7.8897 11.2941 8.51371 11.2564 9.15837C11.2187 9.80304 11.3481 10.4465 11.6322 11.0265C11.9162 11.6064 12.3451 12.1032 12.8775 12.4687C14.4982 10.9278 16.5415 9.90489 18.7463 9.53059Z" fill="#0200EF"/>
</g>
<defs>
<clipPath id="clip0_51_20">
<rect width="30" height="30" fill="white"/>
</clipPath>
</defs>
</svg>
