<svg width="30" height="30" viewBox="0 0 30 30" fill="none" xmlns="http://www.w3.org/2000/svg">
<g clip-path="url(#clip0_51_36)">
<path d="M7.5 0.9375C7.5 0.68886 7.40123 0.450403 7.22541 0.274587C7.0496 0.0987721 6.81114 0 6.5625 0C6.31386 0 6.0754 0.0987721 5.89959 0.274587C5.72377 0.450403 5.625 0.68886 5.625 0.9375V1.875H3.75C2.75544 1.875 1.80161 2.27009 1.09835 2.97335C0.395088 3.67661 0 4.63044 0 5.625L0 7.5H30V5.625C30 4.63044 29.6049 3.67661 28.9016 2.97335C28.1984 2.27009 27.2446 1.875 26.25 1.875H24.375V0.9375C24.375 0.68886 24.2762 0.450403 24.1004 0.274587C23.9246 0.0987721 23.6861 0 23.4375 0C23.1889 0 22.9504 0.0987721 22.7746 0.274587C22.5988 0.450403 22.5 0.68886 22.5 0.9375V1.875H7.5V0.9375ZM30 26.25V9.375H0V26.25C0 27.2446 0.395088 28.1984 1.09835 28.9016C1.80161 29.6049 2.75544 30 3.75 30H26.25C27.2446 30 28.1984 29.6049 28.9016 28.9016C29.6049 28.1984 30 27.2446 30 26.25ZM17.8125 13.125H19.6875C19.9361 13.125 20.1746 13.2238 20.3504 13.3996C20.5262 13.5754 20.625 13.8139 20.625 14.0625V15.9375C20.625 16.1861 20.5262 16.4246 20.3504 16.6004C20.1746 16.7762 19.9361 16.875 19.6875 16.875H17.8125C17.5639 16.875 17.3254 16.7762 17.1496 16.6004C16.9738 16.4246 16.875 16.1861 16.875 15.9375V14.0625C16.875 13.8139 16.9738 13.5754 17.1496 13.3996C17.3254 13.2238 17.5639 13.125 17.8125 13.125ZM23.4375 13.125H25.3125C25.5611 13.125 25.7996 13.2238 25.9754 13.3996C26.1512 13.5754 26.25 13.8139 26.25 14.0625V15.9375C26.25 16.1861 26.1512 16.4246 25.9754 16.6004C25.7996 16.7762 25.5611 16.875 25.3125 16.875H23.4375C23.1889 16.875 22.9504 16.7762 22.7746 16.6004C22.5988 16.4246 22.5 16.1861 22.5 15.9375V14.0625C22.5 13.8139 22.5988 13.5754 22.7746 13.3996C22.9504 13.2238 23.1889 13.125 23.4375 13.125ZM3.75 19.6875C3.75 19.4389 3.84877 19.2004 4.02459 19.0246C4.2004 18.8488 4.43886 18.75 4.6875 18.75H6.5625C6.81114 18.75 7.0496 18.8488 7.22541 19.0246C7.40123 19.2004 7.5 19.4389 7.5 19.6875V21.5625C7.5 21.8111 7.40123 22.0496 7.22541 22.2254C7.0496 22.4012 6.81114 22.5 6.5625 22.5H4.6875C4.43886 22.5 4.2004 22.4012 4.02459 22.2254C3.84877 22.0496 3.75 21.8111 3.75 21.5625V19.6875ZM10.3125 18.75H12.1875C12.4361 18.75 12.6746 18.8488 12.8504 19.0246C13.0262 19.2004 13.125 19.4389 13.125 19.6875V21.5625C13.125 21.8111 13.0262 22.0496 12.8504 22.2254C12.6746 22.4012 12.4361 22.5 12.1875 22.5H10.3125C10.0639 22.5 9.8254 22.4012 9.64959 22.2254C9.47377 22.0496 9.375 21.8111 9.375 21.5625V19.6875C9.375 19.4389 9.47377 19.2004 9.64959 19.0246C9.8254 18.8488 10.0639 18.75 10.3125 18.75Z" fill="#B3B2FA"/>
</g>
<defs>
<clipPath id="clip0_51_36">
<rect width="30" height="30" fill="white"/>
</clipPath>
</defs>
</svg>
